<?xml version="1.0" standalone="no"?>
<!DOCTYPE svg PUBLIC "-//W3C//DTD SVG 20010904//EN"
 "http://www.w3.org/TR/2001/REC-SVG-20010904/DTD/svg10.dtd">
<svg version="1.0" xmlns="http://www.w3.org/2000/svg"
 width="260.000000pt" height="260.000000pt" viewBox="0 0 260.000000 260.000000"
 preserveAspectRatio="xMidYMid meet">
<metadata>
Created by potrace 1.11, written by Peter Selinger 2001-2013
</metadata>
<g transform="translate(0.000000,260.000000) scale(0.100000,-0.100000)"
fill="#000000" stroke="none">
<path d="M0 1300 l0 -1300 655 0 656 0 -6 103 c-3 56 -10 140 -16 187 -15 136
-41 397 -48 496 -7 94 -25 140 -59 150 -9 3 -40 17 -69 30 -90 42 -93 39 -93
-70 0 -106 -14 -182 -40 -216 -16 -21 -21 -22 -46 -13 -16 6 -41 14 -56 17
-17 4 -37 22 -56 53 -44 69 -116 143 -139 143 -31 0 -159 46 -242 87 -95 47
-131 79 -159 140 -21 44 -22 52 -10 88 11 32 23 45 73 73 77 44 215 114 282
142 47 20 53 26 59 59 10 56 38 93 99 131 35 23 58 44 62 60 3 14 18 43 32 65
15 22 34 57 44 77 9 21 37 63 62 93 25 31 45 61 45 67 0 5 9 8 20 5 10 -3 52
1 92 9 40 8 89 14 109 14 35 0 36 1 52 58 8 31 19 75 22 97 9 52 43 102 79
117 16 6 42 23 59 37 22 18 40 25 69 24 50 -2 58 -8 58 -44 0 -28 2 -29 43
-29 102 0 215 -53 268 -125 44 -61 171 -123 267 -132 65 -6 92 -21 92 -51 0
-10 10 -26 21 -36 18 -15 21 -25 15 -64 -3 -25 -18 -70 -31 -101 l-26 -55 23
-17 22 -17 -29 -25 c-17 -14 -42 -36 -58 -49 -39 -33 -49 -106 -17 -138 l22
-22 -36 -84 c-20 -45 -36 -88 -36 -94 0 -6 11 -28 25 -48 29 -42 31 -62 10
-102 -13 -24 -22 -30 -49 -30 -20 0 -40 8 -51 20 -26 29 -47 25 -84 -15 -37
-42 -48 -43 -61 -10 -13 34 -26 32 -80 -14 -74 -62 -134 -86 -215 -86 -57 1
-76 5 -102 24 -17 13 -35 21 -40 18 -23 -14 -36 -197 -60 -824 l-6 -173 591 0
592 0 0 1300 0 1300 -1300 0 -1300 0 0 -1300z"/>
<path d="M1177 1885 l-37 -35 31 -63 c54 -106 73 -125 124 -124 39 0 45 3 45
23 0 12 -7 27 -16 34 -23 20 -35 47 -51 114 -22 97 -38 105 -96 51z"/>
</g>
</svg>
